<?xml version="1.0" encoding="utf-8"?>
<!-- Generator: Adobe Illustrator 16.2.1, SVG Export Plug-In . SVG Version: 6.00 Build 0)  -->
<!DOCTYPE svg PUBLIC "-//W3C//DTD SVG 1.1//EN" "http://www.w3.org/Graphics/SVG/1.1/DTD/svg11.dtd">
<svg version="1.1" id="Volkswagen_Aktiengesellschaft_1_"
	 xmlns="http://www.w3.org/2000/svg" xmlns:xlink="http://www.w3.org/1999/xlink" x="0px" y="0px" width="1200px" height="400px"
	 viewBox="0 0 1200 400" enable-background="new 0 0 1200 400" xml:space="preserve">
<g>
	<polygon points="869.387,276.248 869.387,300 865.734,300 865.734,276.248 858.025,276.248 858.025,273.188 877.131,273.188 
		877.131,276.248 	"/>
	<polygon points="837.581,276.207 837.581,284.947 848.305,284.947 848.305,287.887 837.581,287.887 837.581,300 833.926,300 
		833.926,273.188 848.982,273.188 848.982,276.207 	"/>
	<path d="M818.291,300l-2.187-6.395h-11.396L802.48,300h-3.733l9.613-26.812h4.447L822.381,300H818.291z M811.579,280.418
		c-0.439-1.309-0.795-2.582-1.154-3.773h-0.037c-0.318,1.191-0.718,2.465-1.113,3.734l-3.656,10.326h9.613L811.579,280.418z"/>
	<polygon points="783.233,300 783.233,287.648 769.568,287.648 769.568,300 765.913,300 765.913,273.188 769.568,273.188 
		769.568,284.549 783.233,284.549 783.233,273.188 786.886,273.188 786.886,300 	"/>
	<path d="M751.27,299.246c-2.184,0.637-4.647,1.072-7.268,1.072c-8.381,0-11.996-5.402-11.996-13.105
		c0-8.145,4.089-14.262,12.906-14.262c2.068,0,4.211,0.318,6.039,0.914v3.615c-2.146-0.914-4.37-1.391-6.513-1.391
		c-5.961,0-8.503,4.766-8.503,10.723c0,6.516,2.901,10.25,8.74,10.25c1.986,0,4.529-0.438,6.594-1.072V299.246z"/>
	<path d="M716.29,276.566c-1.432-0.398-3.297-0.715-4.847-0.715c-3.575,0-5.443,1.508-5.443,4.012
		c0,5.877,12.355,3.812,12.355,12.67c0,4.488-3.379,7.826-9.654,7.826c-2.184,0-4.366-0.281-6.035-0.717v-3.576
		c1.706,0.678,4.089,1.154,6.235,1.154c3.256,0,5.639-1.271,5.639-4.41c0-6.193-12.273-4.012-12.273-12.67
		c0-4.289,3.456-7.309,9.417-7.309c1.547,0,3.175,0.16,4.606,0.438V276.566z"/>
	<polygon points="675.747,300 675.747,273.188 679.401,273.188 679.401,296.902 690.126,296.902 690.126,300 	"/>
	<polygon points="647.875,300 647.875,273.188 651.529,273.188 651.529,296.902 662.255,296.902 662.255,300 	"/>
	<polygon points="616.43,300 616.43,273.188 631.602,273.188 631.602,276.207 620.084,276.207 620.084,284.707 630.65,284.707 
		630.65,287.648 620.084,287.648 620.084,296.941 631.761,296.941 631.761,300 	"/>
	<path d="M598.528,276.566c-1.428-0.398-3.297-0.715-4.846-0.715c-3.574,0-5.441,1.508-5.441,4.012
		c0,5.877,12.354,3.812,12.354,12.67c0,4.488-3.376,7.826-9.65,7.826c-2.186,0-4.371-0.281-6.037-0.717v-3.576
		c1.707,0.678,4.09,1.154,6.234,1.154c3.258,0,5.641-1.271,5.641-4.41c0-6.193-12.273-4.012-12.273-12.67
		c0-4.289,3.455-7.309,9.413-7.309c1.549,0,3.179,0.16,4.606,0.438V276.566z"/>
	<polygon points="553.62,300 553.62,273.188 568.793,273.188 568.793,276.207 557.273,276.207 557.273,284.707 567.84,284.707 
		567.84,287.648 557.273,287.648 557.273,296.941 568.952,296.941 568.952,300 	"/>
	<path d="M536.079,298.809c-2.661,0.992-5.919,1.551-8.857,1.551c-8.382,0-13.307-5.047-13.307-13.229
		c0-8.301,4.925-14.299,14.418-14.299c2.306,0,4.767,0.396,6.833,0.951v3.576c-2.266-0.912-4.887-1.389-7.189-1.389
		c-7.229,0-10.169,5.084-10.169,10.646c0,6.672,3.695,10.564,9.93,10.564c1.787,0,3.296-0.279,4.728-0.715v-10.131h3.614V298.809z"
		/>
	<path d="M495.342,300l-9.93-15.729c-1.906-3.02-2.66-4.408-3.495-6.158h-0.079c0.159,3.02,0.356,9.613,0.356,14.379V300h-3.574
		v-26.812h4.17l9.375,14.775c1.708,2.701,2.899,4.807,3.654,6.398h0.079c-0.199-3.457-0.356-9.455-0.356-14.42v-6.754h3.574V300
		H495.342z"/>
	<polygon points="446.696,300 446.696,273.188 461.87,273.188 461.87,276.207 450.351,276.207 450.351,284.707 460.917,284.707 
		460.917,287.648 450.351,287.648 450.351,296.941 462.028,296.941 462.028,300 	"/>
	<polygon points="424.186,300 424.186,290.168 424.186,273.188 427.84,273.188 427.84,300 	"/>
	<polygon points="402.472,276.248 402.472,300 398.815,300 398.815,276.248 391.109,276.248 391.109,273.188 410.216,273.188 
		410.216,276.248 	"/>
	<polygon points="377.778,300 366.616,286.734 366.616,300 362.962,300 362.962,273.188 366.616,273.188 366.616,285.82 
		377.381,273.188 381.789,273.188 370.548,286.021 382.465,300 	"/>
	<path d="M346.453,300l-2.184-6.395H332.87L330.646,300h-3.733l9.611-26.812h4.448L350.545,300H346.453z M339.742,280.418
		c-0.438-1.309-0.795-2.582-1.154-3.773h-0.039c-0.316,1.191-0.713,2.465-1.111,3.734l-3.653,10.326h9.61L339.742,280.418z"/>
</g>
<g>
	<path fill="#4C5356" d="M1062.183,200l-31.486-50.668c-5.64-9.036-8.761-14.962-11.726-21.628h-0.298
		c0.738,10.074,1.486,28.886,1.486,45.032V200h-18.712V100h21.975l29.554,47.406c5.199,8.148,9.207,15.703,12.023,21.926h0.302
		c-0.741-10.961-1.486-28.591-1.486-45.034V100h18.716v100H1062.183z"/>
	<polygon fill="#4C5356" points="914.438,200 914.438,100 974.876,100 974.876,116.147 933.738,116.147 933.738,140.89 
		971.603,140.89 971.603,156.295 933.738,156.295 933.738,183.406 975.322,183.406 975.322,200 	"/>
	<path fill="#4C5356" d="M884.75,195.258c-9.955,3.996-22.279,6.221-34.303,6.221c-32.969,0-50.638-19.555-50.638-49.332
		c0-31.7,19.45-53.627,55.685-53.627c8.463,0,17.822,1.333,25.244,3.407v18.814c-8.17-3.406-17.82-5.037-26.432-5.037
		c-23.763,0-33.561,15.703-33.561,34.368c0,21.037,11.132,34.072,31.926,34.072c4.752,0,8.908-0.59,12.771-1.773v-34.816h19.307
		V195.258z"/>
	<path fill="#4C5356" d="M767.588,200l-6.834-21.332h-37.715L716.063,200h-19.457l33.564-100h25.093l33.707,100H767.588z
		 M746.057,132.149c-1.635-5.186-2.972-10.223-4.011-14.963h-0.299c-1.039,4.74-2.376,9.926-3.861,14.812l-10.388,31.409h28.954
		L746.057,132.149z"/>
	<path fill="#4C5356" d="M667.217,200h-23.908l-15.295-54.667c-1.336-5.332-2.523-12.148-3.267-18.221h-0.297
		c-0.892,6.369-1.781,12.889-3.119,18.221L606.334,200h-24.056l-25.096-100h20.641l13.363,54.664
		c1.93,9.332,3.267,17.334,4.308,24.891h0.296c1.041-7.557,2.525-15.852,4.753-24.594L615.688,100h19.306l15.591,55.555
		c2.08,7.406,4.01,15.998,5.197,24h0.298c1.039-7.705,2.226-15.852,3.862-23.703L673.159,100h19.007L667.217,200z"/>
	<path fill="#4C5356" d="M537.14,117.187c-5.493-1.631-12.621-2.815-18.561-2.815c-10.989,0-16.633,4.444-16.633,11.554
		c0,18.225,43.511,11.854,43.511,44.741c0,17.926-13.662,30.961-38.163,30.961c-8.316,0-16.781-1.039-23.315-2.812v-18.373
		c6.534,2.518,16.04,4.447,24.057,4.447c9.802,0,16.781-3.703,16.781-12.445c0-19.26-42.916-12.15-42.916-44.739
		c0-17.332,13.959-29.332,37.867-29.332c5.494,0,12.027,0.74,17.372,1.777V117.187z"/>
	<polygon fill="#4C5356" points="446.864,200 411.817,151.998 411.817,200 392.513,200 392.513,100 411.817,100 411.817,145.333 
		445.675,100 468.543,100 431.568,147.701 470.921,200 	"/>
	<polygon fill="#4C5356" points="318.122,200 318.122,100 337.428,100 337.428,183.258 373.957,183.258 373.957,200 	"/>
	<path fill="#4C5356" d="M247.15,201.627c-30.146,0-46.034-18.369-46.034-49.777c0-34.663,22.572-53.478,49.153-53.478
		c30.145,0,46.035,18.369,46.035,49.774C296.305,182.811,273.731,201.627,247.15,201.627z M248.635,115.704
		c-15.739,0-26.877,11.852-26.877,33.776c0,21.482,8.911,34.812,26.877,34.812c15.74,0,27.026-11.85,27.026-33.924
		C275.661,129.038,266.752,115.704,248.635,115.704z"/>
	<path fill="#4C5356" d="M158.805,200h-25.096L100,100h21.383l19.306,59.85c1.929,6.666,4.307,15.26,5.939,22.223h0.296
		c1.635-6.816,3.862-15.26,6.09-22.516L172.466,100h19.9L158.805,200z"/>
</g>
</svg>
